<?xml version="1.0" encoding="UTF-8"?><svg id="Layer_1" xmlns="http://www.w3.org/2000/svg" viewBox="0 0 932.36212 1049.54858"><defs><style>.cls-1{fill:#f2f1df;}.cls-2{fill:#7096d1;}.cls-3{fill:#6f96d1;}</style></defs><g><path class="cls-1" d="M780.788,261.82488c-110.71108-99.75199-240.58607-143.75819-390.27948-113.12532-81.58294,16.695-154.06977,55.35266-221.73724,102.92761C39.00866,342.8591-3.22163,470.6882,13.49649,620.39538c10.81332,96.83075,57.45015,181.31236,109.61311,262.23847,27.73669,43.03094,66.7348,74.40938,114.33541,95.39447,51.59434,22.74593,104.40554,41.5574,160.08439,51.98801,158.24158,29.64504,295.22081-9.6727,402.11765-129.45942,84.94932-95.19265,116.77191-212.05769,122.65628-336.60511-.0736-22.60445-.09427-45.20981-5.12352-67.17588-21.05478-91.96126-66.06055-171.58206-136.39182-234.95103Z"/><path class="cls-2" d="M495.09454,1049.54858c-31.9248,.00122-65.0625-3.21069-99.41699-9.64697-50.79785-9.51611-102.36621-26.25269-162.29004-52.67041-50.81836-22.40405-90.76562-55.76233-118.73145-99.14844C63.52814,808.76196,14.67462,721.56848,3.50128,621.5116c-8.81836-78.96484-.95996-150.00439,23.35693-211.14526,26.10498-65.6377,71.90527-121.81335,136.12891-166.96655,79.94434-56.20715,151.60059-89.42981,225.50488-104.55347,146.45215-29.96899,280.70215,8.89294,399.02832,115.50671,70.62109,63.63025,117.54297,144.43787,139.46289,240.17822,5.22559,22.82495,5.30176,46.13037,5.375,68.66846l.00391,.97302-.0127,.25366c-3.23145,68.39258-13.76562,127.95117-32.20508,182.07922-20.67188,60.68237-51.95898,114.76562-92.99316,160.74768-84.4668,94.65173-189.13965,142.29016-312.05664,142.29529Zm-12.67773-900.3385c-29.43359,0-59.44531,3.1123-89.8916,9.34277-71.10352,14.55029-140.36426,46.73962-217.96973,101.30176-60.96777,42.86475-104.37207,96.00513-129.00635,157.94531-23.08447,58.04163-30.50537,125.8291-22.05762,201.47925,10.71338,95.93079,58.27246,180.64722,108.07178,257.90564,25.7959,40.0199,62.78516,70.85229,109.93945,91.64075,58.47168,25.77844,108.63867,42.08093,157.87793,51.3053,78.29785,14.6687,150.79004,11.84058,215.45703-8.40527,66.41211-20.79199,126.06641-60.44763,177.30566-117.86511,39.78418-44.58118,68.88281-94.90308,88.96094-153.84119,17.79883-52.24805,27.98633-109.91797,31.14062-176.28992l-.00098-.46411c-.07324-22.42358-.14258-43.60339-4.86816-64.24463-20.97852-91.62781-65.83398-168.91785-133.32031-229.72388-55.30957-49.83521-114.75977-84.59058-176.69727-103.30115-37.02832-11.18579-75.46387-16.78552-114.94141-16.78552Z"/></g><g><path class="cls-2" d="M497.76843,833.4483c-52.37395-2.05096-102.31572-12.16925-141.96713-47.38219-31.1235-27.63967-50.15087-63.16249-62.9439-101.63152-1.68291-5.06063-1.99765-10.59814-2.45834-15.953-.8579-9.97125,4.30232-16.04425,14.53228-17.09257,10.26775-1.05224,15.97678,4.22939,18.30315,13.76336,22.64788,92.81618,78.67093,126.35941,146.80822,135.62815,78.54725,10.68486,153.02548-19.94174,191.63143-79.80345,12.58895-19.52012,18.04535-41.14972,21.90343-63.2914,1.72934-9.92485,3.08938-19.74442,17.28549-18.19771,12.05662,1.31367,16.55168,9.85374,14.76842,24.27291-13.6391,110.28077-117.33342,168.84044-207.43101,169.68323-3.47703,.03253-6.9547,.00418-10.43205,.00418Z"/><path class="cls-1" d="M504.38751,836.89734c-1.10547,0-2.21094-.00281-3.31738-.00574l-3.43652-.0083c-64.95996-2.54382-109.40625-17.42371-144.11426-48.24683-28.2959-25.12793-49.20508-58.85779-63.92383-103.11707-1.63965-4.92993-2.06836-10.09705-2.48242-15.09387l-.13867-1.64917c-1.01562-11.79492,5.56641-19.57324,17.60645-20.80701,11.49121-1.17749,19.09375,4.48242,21.99316,16.36816,19.53613,80.06335,65.27148,122.33679,143.93164,133.03674,38.02344,5.17273,75.7168,.60217,109.0127-13.21558,33.33496-13.83325,60.74512-36.32544,79.26758-65.0448,12.7627-19.79004,17.83008-41.50269,21.40527-62.01831l.11914-.6842c1.62402-9.36914,3.8418-22.20227,20.9248-20.3407,6.05469,.65967,10.69922,2.98291,13.80371,6.90515,3.80371,4.80396,5.15039,11.93909,4.00391,21.20691-8.11328,65.59875-46.03613,105.93994-76.42188,128.23071-37.91699,27.8158-86.89941,44.0238-134.38867,44.46802-1.28125,.01208-2.56348,.01587-3.84473,.01587Zm-6.54883-6.88647l3.25,.00562c2.35938,.00598,4.71973,.01221,7.0791-.00977,46.08105-.43115,93.60547-16.15381,130.38672-43.13672,29.29395-21.49011,65.85352-60.36609,73.66602-123.53113,.91113-7.37317,.0459-12.78857-2.57227-16.09583-1.94629-2.45947-4.94238-3.87842-9.15723-4.33765-10.20312-1.11084-11.55176,3.98059-13.40625,14.6803l-.12012,.68982c-3.52246,20.21228-8.93848,43.68909-22.40137,64.5647-19.28223,29.89819-47.77832,53.29761-82.40918,67.66858-34.42188,14.28418-73.35254,19.01392-112.57422,13.67798-38.22363-5.19958-68.38281-17.38416-92.20215-37.25012-27.74902-23.14429-46.55176-56.17163-57.4834-100.96936-2.08301-8.53894-6.59082-11.98193-14.6123-11.15857-8.41113,.86182-12.1582,5.23779-11.45801,13.37805l.14062,1.67029c.38086,4.59375,.77539,9.34399,2.1543,13.49292,14.32715,43.08289,34.59668,75.84106,61.96484,100.14587,33.4248,29.68286,76.53223,44.02991,139.75488,46.51501Z"/></g><g><path class="cls-2" d="M426.91302,700.40546c-22.87936,.53705-32.06171-10.60389-28.88363-33.68609,4.37021-31.74117,9.26216-63.41166,14.07962-95.08973,3.38417-22.25366,6.91173-44.48702,10.60802-66.69073,.99631-5.98486,2.17327-12.10184,4.4533-17.67277,3.43238-8.38646,10.46645-10.82536,18.83283-8.00633,8.44768,2.84651,9.94675,9.04644,8.19898,17.41693-11.54508,55.29277-18.20948,111.38374-27.00548,167.12803-1.81342,11.49251,6.52164,6.67658,10.81215,6.52418,9.04673-.32137,15.33428,2.63084,16.14082,12.055,.79109,9.24422-3.75501,15.28154-13.37377,16.73839-.37713,.05712-.75652,.10368-1.13638,.13807-4.94043,.4463-9.8811,.88939-12.72645,1.14505Z"/><path class="cls-1" d="M425.32599,703.86194c-11.4541,0-19.60645-2.88879-24.8916-8.80981-5.69922-6.38452-7.59961-15.80566-5.81055-28.80164,3.82617-27.78943,8.12109-55.97571,12.27441-83.23389l1.8125-11.90381c3.46484-22.78577,7.03613-45.23987,10.61523-66.7384,.95312-5.72534,2.17871-12.34143,4.66309-18.4104,3.99707-9.76709,12.63672-13.4917,23.11133-9.96179,9.25586,3.11865,12.77734,10.31104,10.4668,21.37732-8.01465,38.38281-13.77246,77.85327-19.3418,116.02429-2.43652,16.7019-4.95605,33.97253-7.63281,50.93677-.36816,2.33618-.16797,3.33826-.06152,3.66687,.73926,.12341,2.58203-.28479,3.60742-.51135,1.24219-.2749,2.52734-.5592,3.74805-.60254,15.15234-.53564,19.06934,7.96716,19.6875,15.19714,.96484,11.27039-4.9707,18.71704-16.2832,20.43042-.44727,.06763-.89355,.12244-1.3418,.16284l-12.95508,1.1582c-.56348,.01318-1.12012,.01978-1.66797,.01978Zm14.35352-222.30359c-4.29102,0-7.41797,2.34387-9.32715,7.00964-2.21484,5.41077-3.35254,11.57898-4.24512,16.93579-3.57324,21.46643-7.13965,43.88843-10.59961,66.64258l-1.8125,11.90588c-4.15039,27.23413-8.44141,55.39551-12.26074,83.13599-1.47656,10.72754-.08789,18.56201,4.12891,23.28564,4.04199,4.52905,11.16309,6.71509,21.15723,6.49756l12.60938-1.13464c.31152-.0282,.62305-.06665,.93262-.1134,7.69043-1.16492,11.11328-5.4325,10.46191-13.04639-.41504-4.84705-2.23242-9.28088-12.59375-8.9126-.59277,.021-1.56641,.23633-2.50781,.44458-2.94043,.65015-6.96777,1.54114-9.81445-1.13708-2.77344-2.60901-2.47363-6.84424-2.00684-9.80286,2.6709-16.9248,5.1875-34.17529,7.62109-50.85779,5.58398-38.27295,11.35742-77.84888,19.41406-116.43713,1.38086-6.60889,.86914-11.16516-5.93164-13.45667-1.89844-.63977-3.6416-.95911-5.22559-.95911Z"/></g><g><path class="cls-3" d="M93.89533,144.49023c8.07471,.06787,15.91748,4.09863,23.5249,12.09473l30.10596,31.64453-12.92627,12.29785-28.53223-29.98926c-4.58984-4.82471-9.18799-7.37988-13.7915-7.6626-4.60303-.28223-9.00928,1.57666-13.21338,5.57715-4.75635,4.5249-7.15381,9.53174-7.18848,15.01514-.03613,5.48486,2.50439,10.91553,7.61963,16.29248l26.56396,27.92188-12.92627,12.29688L20.13068,163.24854l12.92627-12.29785,26.56445,27.9209c-.0293-4.30762,.95264-8.55664,2.94189-12.74902,1.98926-4.18945,4.9126-8.12207,8.77441-11.79492,6.9624-6.625,14.48193-9.90332,22.55762-9.8374Z"/><path class="cls-3" d="M183.41095,71.75879l41.54102,63.90527-14.24121,9.25684-5.36719-8.25684c-.50293,4.64111-2.07617,8.89844-4.72168,12.77246-2.64648,3.87451-6.16211,7.24023-10.54883,10.09131-6.22266,4.04541-12.66895,6.30762-19.33887,6.78369-6.66895,.479-12.98828-.86182-18.95703-4.02051-5.96729-3.15576-11.07764-8.00635-15.33105-14.54883-4.25146-6.5415-6.59717-13.16064-7.03467-19.85693-.43652-6.6958,.91699-12.99365,4.05957-18.89795,3.14453-5.8999,7.82617-10.875,14.0498-14.92041,4.14746-2.69482,8.42529-4.4541,12.82959-5.27441,4.40332-.82031,8.78906-.66211,13.1582,.46875l-5.05664-7.77881,14.95898-9.72363Zm10.07812,59.50195c1.20605-6.00244-.1377-11.99756-4.02734-17.98145s-8.82227-9.64258-14.79883-10.979c-5.97363-1.33545-11.71582-.21533-17.2207,3.36328s-8.84033,8.35791-10.00488,14.33398c-1.16455,5.97949,.19873,11.95898,4.08789,17.94287,3.88965,5.98389,8.80273,9.6582,14.73828,11.01855,5.93457,1.36279,11.65625,.25391,17.16211-3.32422,5.50391-3.57959,8.85938-8.36963,10.06348-14.37402Z"/><path class="cls-3" d="M272.56232,36.79492c6.63574,.83057,12.59473,3.36523,17.87988,7.60352,5.28418,4.24072,9.3584,9.93652,12.22266,17.09277,2.86523,7.15625,3.85547,14.11426,2.97363,20.87207-.88281,6.76025-3.4375,12.72949-7.66895,17.90625-4.23047,5.1792-9.79102,9.14648-16.68164,11.90527-9.54199,3.81836-18.36816,3.66162-26.47949-.4707l13.73828,34.32031-16.56445,6.63037-38.61523-96.47021,15.76953-6.31152,3.71289,9.27588c1.39355-4.45166,3.76465-8.32227,7.11426-11.61084,3.34766-3.28564,7.4502-5.90283,12.30957-7.84814,6.89062-2.75928,13.6543-3.72217,20.28906-2.89502Zm13.79492,49.82764c2.30371-5.63574,2.13086-11.76953-.52148-18.39502-2.65234-6.62598-6.75781-11.18262-12.31445-13.67383-5.55859-2.48828-11.38477-2.51514-17.48047-.0752-3.97559,1.59082-7.19043,3.93115-9.64648,7.0127-2.45508,3.08545-3.9375,6.67725-4.4502,10.77539-.51074,4.10156,.11719,8.35889,1.88477,12.77637,1.76953,4.41846,4.25195,7.93262,7.45117,10.54639,3.19922,2.61523,6.75195,4.19189,10.65625,4.72852,3.90527,.53955,7.84473,.01123,11.82031-1.57959,6.0957-2.44043,10.2959-6.47754,12.60059-12.11572Z"/><path class="cls-3" d="M376.44611,11.28662c6.36035,2.06445,11.73535,5.67578,16.12793,10.8335,4.3916,5.16016,7.32031,11.52148,8.78613,19.08887,1.46582,7.56641,1.12891,14.58789-1.00977,21.05811-2.14062,6.47314-5.77344,11.854-10.90332,16.14209-5.12988,4.29004-11.33887,7.13965-18.625,8.55176-10.08984,1.95264-18.72949,.13672-25.91699-5.44922l7.0293,36.29395-17.51562,3.39307-19.75977-102.01611,16.67578-3.22949,1.90039,9.80957c2.20605-4.10986,5.26367-7.46484,9.17188-10.06445,3.90723-2.59619,8.42871-4.39502,13.56738-5.38965,7.28809-1.41113,14.11133-1.08496,20.47168,.97803Zm4.16602,51.53271c3.32324-5.10156,4.30859-11.15723,2.95117-18.16309-1.35645-7.00732-4.53125-12.25586-9.51953-15.74805-4.99023-3.49072-10.70801-4.61523-17.15332-3.36523-4.2041,.81299-7.80176,2.50488-10.79492,5.07031-2.99121,2.56738-5.125,5.81543-6.39941,9.74512-1.27344,3.93115-1.45801,8.23145-.55469,12.90137,.90527,4.67188,2.68262,8.5918,5.33203,11.76172,2.65039,3.17188,5.8418,5.38818,9.5752,6.65039,3.73438,1.26416,7.70312,1.48828,11.90723,.67383,6.44531-1.24854,11.33008-4.42285,14.65625-9.52637Z"/><path class="cls-3" d="M493.66193,0l1.56836,64.64014c.65039,26.82617-12.2002,40.55859-38.55078,41.19775-6.94434,.16846-13.60156-.59766-19.97266-2.2998-6.37305-1.70117-11.64648-4.26367-15.82031-7.68311l7.66504-13.60693c3.30078,2.67969,7.30176,4.77148,12.00293,6.27686,4.69922,1.50342,9.62012,2.19385,14.75684,2.06982,7.79883-.18945,13.48535-2.20801,17.05762-6.05371,3.57031-3.84766,5.2627-9.66943,5.07324-17.47168l-.08691-3.56689c-2.77734,3.20898-6.19238,5.69727-10.24219,7.4585-4.0498,1.76611-8.45312,2.70459-13.20996,2.81982-10.17969,.24658-18.26074-2.36328-24.24805-7.83643-5.98535-5.46924-9.11523-13.81738-9.3877-25.04297l-.94824-39.09814,17.83691-.43213,.89258,36.81348c.16406,6.75684,1.83203,11.78418,5.00684,15.08496,3.17188,3.30371,7.61426,4.88428,13.32227,4.74609,6.37109-.1543,11.38965-2.22607,15.05469-6.21924,3.66211-3.99121,5.4043-9.69678,5.22363-17.11768l-.83008-34.24658,17.83594-.43213Z"/><path class="cls-3" d="M628.00177,21.52148c5.11719,4.30469,8.73828,9.67236,10.86914,16.10352,2.12793,6.43408,2.44824,13.42871,.96094,20.99121-1.48828,7.56348-4.44141,13.94189-8.85645,19.13281-4.41699,5.19287-9.80762,8.81201-16.17383,10.85547-6.36719,2.04541-13.19141,2.35059-20.47461,.91699-10.08301-1.9834-17.4043-6.91553-21.96387-14.79492l-7.1377,36.27295-17.50586-3.44531,20.06152-101.95654,16.66602,3.2793-1.92871,9.80371c3.59082-2.97754,7.68555-4.93555,12.28418-5.87402,4.59668-.9375,9.46289-.90234,14.59863,.10742,7.2832,1.43359,13.48242,4.30469,18.60059,8.60742Zm-15.52344,49.31494c4.99805-3.47607,8.18945-8.71729,9.56738-15.71924,1.37695-7.00244,.41016-13.05957-2.89844-18.17188-3.31055-5.11182-8.18555-8.30273-14.62695-9.5708-4.20215-.82666-8.17188-.61279-11.91016,.63818-3.7373,1.25391-6.93555,3.46191-9.59375,6.62305-2.66016,3.16309-4.44824,7.07812-5.36719,11.74512-.91797,4.66943-.74609,8.9707,.51562,12.90283,1.26367,3.93555,3.38672,7.18994,6.37109,9.76318,2.98438,2.57715,6.57812,4.27734,10.7793,5.10352,6.44238,1.26807,12.16309,.16455,17.16309-3.31396Z"/><path class="cls-3" d="M653.26837,98.5708c-2.7832-5.52979-2.89355-12.03076-.33203-19.50293L679.54767,1.42969l16.87793,5.78467-26.19531,76.42334c-2.46777,7.20264-.32617,11.95947,6.4248,14.27344,2.24902,.77002,4.42773,1.01562,6.53906,.73193l-3.81836,13.77979c-3.55273,.08887-7.12891-.48145-10.72852-1.71582-7.47266-2.56055-12.59766-6.60498-15.37891-12.13623Z"/><path class="cls-3" d="M787.15118,80.47705l-34.08691,68.17383-15.19141-7.59619,4.4043-8.80859c-4.25781,1.91602-8.72559,2.71338-13.40527,2.39355-4.68164-.32031-9.36328-1.64941-14.04297-3.98926-6.63965-3.31982-11.85254-7.73486-15.63965-13.24561-3.78809-5.50928-5.83105-11.63818-6.12793-18.3833-.29883-6.74512,1.29785-13.60693,4.78711-20.58643,3.48926-6.97803,8.01172-12.35205,13.56445-16.11865,5.55371-3.7666,11.6709-5.78613,18.35254-6.06445,6.68066-.2749,13.34082,1.24512,19.97949,4.56445,4.42383,2.21191,8.10742,5.01172,11.04297,8.39453,2.93652,3.38281,5.02051,7.24512,6.25586,11.58496l4.14941-8.29785,15.95801,7.979Zm-46.21484,38.81055c5.78613-1.99902,10.27734-6.19189,13.46875-12.57471,3.19141-6.3833,3.85059-12.49023,1.97852-18.3208-1.87305-5.82812-5.74512-10.21338-11.61719-13.14893-5.87305-2.93652-11.68457-3.39307-17.42773-1.37207-5.74512,2.02148-10.21289,6.22266-13.4043,12.60596s-3.87305,12.48145-2.04199,18.28906c1.82715,5.80859,5.68066,10.18066,11.55273,13.1167,5.87305,2.93701,11.70312,3.40576,17.49121,1.40479Z"/><path class="cls-3" d="M782.9549,164.18262c-3.15039-6.37158-4.41895-13.00098-3.7998-19.88477,.61719-6.88232,3.12305-13.375,7.51562-19.47656,4.39258-6.09863,9.73926-10.51562,16.0459-13.24658,6.30273-2.72998,12.95703-3.62549,19.96289-2.6875,7.00195,.93896,13.74902,3.74414,20.23633,8.41357,6.09961,4.39258,10.55762,9.47949,13.37402,15.25781,2.81348,5.78027,3.71387,11.82031,2.69434,18.12158l-15.79102-1.52002c.2793-4.13477-.39648-7.87598-2.03125-11.22412-1.63574-3.34619-4.03711-6.15967-7.20215-8.43994-5.40625-3.8916-11.15137-5.35938-17.23242-4.40381-6.08301,.95752-11.23633,4.37061-15.46094,10.23779-4.22656,5.87012-5.84863,11.82471-4.86328,17.86914,.98242,6.04395,4.2168,11.03711,9.7002,14.98633,3.16602,2.27979,6.59473,3.66602,10.28906,4.1543,3.69238,.48975,7.4541-.05566,11.28906-1.63379l6.44922,14.49316c-5.73047,2.90869-11.79688,3.96582-18.19727,3.16748-6.40234-.79834-12.61426-3.3667-18.6377-7.70264-6.41113-4.61621-11.19043-10.1084-14.34082-16.48145Z"/><path class="cls-3" d="M886.65314,231.73926l-1.78516,14.36475c-5.26953,.29102-10.43945-.79346-15.50879-3.25439-5.07227-2.46143-9.81641-6.11914-14.23633-10.9751-5.6377-6.19287-9.37207-12.7666-11.19824-19.72314-1.83008-6.95605-1.71484-13.72119,.34668-20.29248,2.05762-6.57227,5.86816-12.38818,11.42871-17.44824,5.48828-4.99756,11.56836-8.24756,18.24121-9.75293,6.66992-1.50537,13.23926-1.17969,19.70801,.97656,6.46387,2.15479,12.22852,6.0127,17.29004,11.57275,4.80371,5.27686,8.03027,11.12109,9.68457,17.53027,1.65137,6.41016,1.50195,12.81934-.44824,19.22803-1.95312,6.4082-5.77734,12.20654-11.47754,17.39502l-47.74219-35.48438c-2.02148,4.28223-2.52832,8.67139-1.52734,13.16406,1.00098,4.49219,3.39062,8.81396,7.1709,12.9668,5.57324,6.12207,12.25684,9.36621,20.05371,9.73242Zm-1.73242-52.36963c-5.89062-.10938-11.50781,2.27295-16.85547,7.14062l-.10547,.0957,35.13867,26.3042c2.61426-4.05273,3.71289-8.43213,3.29395-13.13281-.41895-4.70215-2.42285-9.02246-6.00879-12.9624-4.41992-4.85596-9.5752-7.33789-15.46289-7.44531Z"/></g><g><path class="cls-2" d="M218.21087,433.51961c16.36715,16.08861,35.78735,29.52872,57.6866,36.39529,21.89925,6.86657,46.43083,6.74167,67.21242-2.99756,19.45386-9.117,41.18649-32.18746,40.49718-55.07994-7.18279-.72266-9.98113,.39962-15.73931,6.15781-6.4834,5.35251-11.78331,10.67784-18.72695,15.8757-13.89935,10.40476-25.90631,16.22351-43.1883,18.0983-11.85633,1.2862-27.66934,2.15581-37.14915-5.08023-6.54009-4.99212-20.32649-14.26674-25.37353-20.76454-7.89071-10.15886-26.58689-29.18269-40.74734-29.30063-17.46057-.14542,10.34368,31.59934,15.52837,36.69579Z"/><path class="cls-1" d="M306.54962,478.10559c-10.47363,0-21.21289-1.6283-31.68066-4.91052-20.65625-6.47656-40.5293-19.00061-59.06836-37.22388v-.00012c-.26562-.26111-26.27051-26.80444-21.65039-37.96228,.87598-2.11487,3.04785-4.62292,8.41602-4.62292,.04785,0,.0957,.00012,.14453,.00061,7.05859,.05872,15.42383,3.97998,24.86426,11.65491,9.64551,7.84094,16.65137,16.50549,18.56934,18.97437,3.64844,4.69653,12.8291,11.39612,19.53223,16.28796,1.93164,1.4093,3.75586,2.74048,5.21289,3.85278,8.2959,6.33179,22.89844,5.67444,34.69238,4.39526,15.32617-1.6626,26.96094-6.55029,41.49902-17.43286,4.10742-3.07458,7.58008-6.15625,11.25684-9.41895,2.29883-2.04028,4.6748-4.14893,7.21582-6.25159,6.43262-6.40491,10.24902-7.85144,18.39746-7.03125l3.00098,.30188,.09082,3.01489c.71387,23.69568-21.03516,48.24841-42.47363,58.29614-11.44922,5.3656-24.51367,8.07556-38.01953,8.07556Zm-85.92871-47.03748c17.75488,17.45264,36.69824,29.41907,56.30469,35.56665,22.3457,7.00659,45.9375,5.97449,64.72559-2.83008,18.04785-8.45825,37.1084-29.04517,38.45801-48.73059-3.77734,.02295-5.74805,1.28906-9.81055,5.35181l-.24219,.22021c-2.49414,2.05908-4.86426,4.16223-7.15625,6.19604-3.62012,3.21265-7.36328,6.53467-11.7002,9.78076-13.03027,9.75403-25.64844,16.67786-44.87598,18.76379-13.06641,1.41772-29.37598,2.04297-39.60645-5.76526-1.39844-1.06738-3.19336-2.37732-5.09375-3.76416-7.4248-5.4187-16.66602-12.16235-20.90918-17.62402-3.71875-4.7876-10.26172-11.99255-17.47559-17.85718-8.08496-6.57227-15.20312-10.06995-20.58496-10.11475-1.46973-.01331-2.05078,.26965-2.15039,.36926-.00781,.01611-1.19629,3.11475,6.9541,14.59607,5.09961,7.18396,11.17383,13.88647,13.16309,15.84143h0Z"/></g><g><path class="cls-2" d="M569.02404,454.82091c16.27916,12.9359,34.95405,20.19661,53.81833,24.24052,19.06997,4.088,38.71142,4.99517,57.68513,.22041,18.9737-4.77476,37.2869-15.44982,51.38554-32.50111,5.54118-6.70167,10.73205-15.83738,9.24976-25.44411-.31226-2.02374-1.02845-4.13171-2.45192-5.07517-2.14916-1.42444-4.68236,.40301-6.6757,2.16421-15.9631,14.1041-32.28599,28.12266-50.58427,36.24436-18.29828,8.1217-25.63527,8.76084-44.87574,6.08071-16.69056-2.32494-32.76855-3.77169-45.64743-10.99855-12.01875-6.7442-25.4307-21.48265-31.99363-32.37538-12.26422-20.35538-24.34189-25.21367-26.85317-19.4399-2.68811,6.1803,10.90951,27.08124,13.78485,31.45885,6.57893,10.01621,14.50032,18.54532,23.15825,25.42517Z"/><path class="cls-1" d="M653.54962,485.51904c-9.99512,.00012-20.46582-1.16577-31.3418-3.49731-21.94922-4.70508-39.96191-12.82715-55.06738-24.83044-9.21582-7.32288-17.22461-16.11548-23.80469-26.1333-17.42578-26.52429-14.87109-32.39844-14.03125-34.32886,1.0459-2.40503,3.1875-3.88623,5.87402-4.06372,7.34961-.48889,17.45215,8.38416,26.34863,23.14893,6.16406,10.2301,19.08105,24.67566,30.88184,31.29761,10.91016,6.1217,24.50781,7.94214,38.90332,9.86938,1.88281,.25208,3.77832,.50574,5.68066,.77075,18.27637,2.5459,25.26953,2.12219,43.22949-5.84937,17.37598-7.71252,32.83789-20.75171,49.80762-35.74597,1.48438-1.31128,6-5.3042,10.35352-2.41895,1.97266,1.30762,3.24219,3.70886,3.77148,7.13684,1.34863,8.73901-2.07812,18.36414-9.90918,27.83533-13.78027,16.66675-32.10059,28.25366-52.97949,33.50793-8.74512,2.20068-18.00684,3.30103-27.7168,3.30115Zm-117.78516-86.81763c-.06445,0-.12695,.00208-.1875,.00598-.54492,.03613-.62207,.21313-.71973,.43726-.83984,1.92993,2.07324,11.13623,13.53906,28.58862,6.22656,9.47937,13.80078,17.79541,22.51172,24.71729h0c14.3584,11.4093,31.55371,19.14551,52.56934,23.65051,20.52539,4.40002,39.47168,4.4823,56.31055,.24475,19.62109-4.93762,36.83789-15.82812,49.79199-31.49438,4.66992-5.64868,9.95215-14.2334,8.59082-23.0531-.31934-2.06775-.92578-2.8761-1.13281-3.01306-.06934-.01331-.81152-.02417-2.99805,1.90918-17.35352,15.3324-33.19531,28.68005-51.36035,36.7428-19.20801,8.52466-27.17773,9.00696-46.52246,6.31213-1.8916-.26355-3.77539-.51575-5.64746-.76636-14.9873-2.00647-29.14355-3.90161-41.06348-10.59045-12.70801-7.1311-26.54102-22.55823-33.10547-33.45337-8.94629-14.84851-17.25488-20.23779-20.57617-20.23779Z"/></g></svg>