<?xml version="1.0" encoding="UTF-8"?><svg id="Layer_1" xmlns="http://www.w3.org/2000/svg" viewBox="0 0 738.15252 1080"><defs><style>.cls-1{fill:#f2f1df;}.cls-2{fill:#fff;}.cls-3{fill:#091f5b;}</style></defs><path class="cls-3" d="M579.8503,708.84146c35.71067,9.02418,67.08594,24.41964,97.16658,42.67348,27.29776,16.56512,46.3343,40.53607,56.91751,70.00077,9.49364,26.43113,1.41391,52.63678-8.96006,77.36932-12.18266,29.04444-32.25574,51.85429-59.16174,68.47963-2.54021,1.56971-4.95592,3.33983-7.46989,4.9538-.94357,.60566-2.00251,1.03161-2.01484,1.03784,4.54793,5.20853,12.2152,10.5806,11.39235,13.74511-1.80403,6.93767-6.9559,13.85932-12.54879,18.69726-4.80622,4.15753-11.90867,6.57997-18.36326,7.76121-38.17154,6.98557-76.56636,12.79592-114.63276,20.28821-14.06304,2.76794-27.48124,8.90894-41.12015,13.71955-88.11732,31.07984-178.15134,41.80747-270.37609,23.43784-56.3249-11.21901-108.19768-32.57692-148.15704-75.9552-30.09559-32.67045-45.77217-71.22154-44.9525-116.19221,.38887-21.33475-.32689-42.57071,9.08921-62.63351,19.69894-41.97238,54.03895-67.67076,95.00437-85.89863,36.64415-16.30511,75.17302-24.37833,117.11553-24.13887-2.07735-16.79073-4.0598-32.81432-6.4005-51.73357-5.18347,5.75705-8.78461,9.71603-12.34154,13.71427-14.43105,16.22159-30.87768,29.72423-52.68504,34.11594-22.3063,4.49215-41.43257-1.51949-58.32521-17.75403-34.55026-33.20423-46.68791-76.11758-55.27839-120.92581-9.21611-48.07159-7.7078-96.53367-5.15358-145.00031,.30116-5.71443,3.17607-11.29321,5.50391-19.102-7.75228-2.66322-15.86002-5.98273-24.25505-8.22813-21.49317-5.74873-32.5611-18.72727-29.27225-40.71804,2.66915-17.84721,8.54044-35.47539,15.07666-52.39524,4.54526-11.76599,10.41212-11.566,18.30656-1.93098,11.91641-5.39938,15.10929-3.44338,13.73791,9.24-.84025,7.77114-2.46907,15.50737-4.36394,23.10459-5.46966,21.92976,1.33655,33.27196,23.43639,36.61795,7.93658,1.20162,16.20782,.19287,26.13757,.19287-3.51434-8.04783-7.12463-14.83238-9.44544-22.0326-2.49566-7.74264-4.74258-15.81914-5.21223-23.86013-.25628-4.38788,3.39302-9.00387,5.28095-13.51699,4.29734,2.93358,10.03801,4.95534,12.58851,8.9925,5.14802,8.14872,7.93668,17.76274,12.8594,26.08575,5.44083,9.19896,12.64224,17.34782,18.21766,26.47864,4.90985,8.04078,10.5897,16.3738,12.56327,25.32035,12.03857,54.57342,8.37749,110.46113,12.73772,165.7019,1.46132,18.51392,3.16752,37.00851,4.76177,55.51195,1.02654,.39477,2.05306,.78962,3.0796,1.18439,5.5894-9.21239,11.95953-18.04693,16.63317-27.7026,20.32396-41.98872,39.22928-84.69078,60.5087-126.18038,12.84092-25.03671,29.55377-48.3266,57.73207-58.41442,13.48928-4.82921,28.15438-6.37405,43.21146-9.60473,0-19.65415-.90931-39.80869,.26313-59.84135,1.10831-18.93668,2.44237-38.25272,7.16326-56.50001,8.65003-33.43468,35.72208-54.119,70.05597-56.92951,25.25472-2.06731,44.75339,11.91737,55.29566,40.15748,2.58327,6.91993,4.03068,14.26389,6.19636,22.12447,6.7656,.38669,13.85065,.32698,20.75554,1.41285,2.79741,.43993,6.18663,2.89192,7.4072,5.3655,.70514,1.42912-2.3273,4.75651-3.78849,7.16219-.36172,.59552-1.08789,1.11663-1.75915,1.35568-18.79411,6.69246-25.46174,20.16889-25.94438,39.80886-.50327,20.47909-10.59253,36.35291-31.3391,42.52827-.45534,12.37209,3.56106,18.66184,16.47979,20.78637,22.81801,3.75248,43.12934,15.72627,57.01251,33.21359,9.31225,11.72975,14.04441,29.05393,15.78201,44.44438,4.01376,35.55147,4.89604,71.45346,7.18847,107.2043,.63015,9.82682,1.75432,19.62199,2.65181,29.43161,1.05538,.01912,2.1108,.03816,3.16618,.05721,3.00798-19.0377,5.95269-38.08575,9.03799-57.11092,5.31911-32.80031,10.79745-65.57493,16.05648-98.3848,1.83061-11.42085,2.99603-22.94914,4.86871-34.36218,1.29717-7.90598,1.05333-16.56711,10.12472-21.19125,1.79649-.91575,2.57248-5.25831,2.5844-8.02591,.09989-23.19281,8.58159-41.87078,27.62909-55.88778,12.6256-9.29118,24.14395-20.08116,36.69137-29.48865,2.97814-2.23289,8.09418-1.61425,12.22685-2.30726-.40594,4.41429,.6961,9.85111-1.48222,13.06343-8.79624,12.97138-18.62937,25.23797-28.00215,37.82252-1.03401,1.38832-1.57108,3.14682-2.45032,4.96432,14.23683,1.57341,22.95353-3.02333,29.09713-15.96343,7.51942-15.83799,14.34796-32.00285,21.74091-47.90281,1.70804-3.67369,3.91315-7.54957,6.94494-10.05545,3.17039-2.62047,7.61308-3.70175,11.49958-5.45587,1.40151,3.1596,2.87188,6.29149,4.16343,9.49542,.39491,.97978-.02638,2.92042,.47452,3.13381,15.38299,6.55318,7.07724,18.24212,5.44038,27.73905-1.89543,10.99662-5.70293,21.66492-8.70183,32.4698-6.06522,21.85251-16.73394,39.40964-40.45146,42.74617,0,12.59329,1.13075,23.98527-.19657,35.08325-5.62715,47.04985-10.35348,94.299-18.54626,140.92403-7.76361,44.1829-24.04604,85.60135-53.80364,120.47273-2.89093,3.38772-5.75575,6.79784-10.10135,11.93313Zm-258.65249,179.38548c3.19523-9.92185-4.3119-9.35394-8.87822-10.37972-49.23095-11.05883-98.54773-21.74008-147.71501-33.07152-5.31153-1.22413-14.40652-7.32519-13.96719-8.72848,2.70597-8.64352,10.46432-4.568,16.06835-3.46932,50.98047,9.99516,101.88481,20.37837,152.82134,30.59853,2.87479,.57681,5.93262,1.3665,8.74266,.95289,14.72766-2.16804,29.32182-5.54281,44.1097-6.9522,84.50998-8.05444,169.05364-15.76331,253.6234-23.16057,4.19042-.36662,8.7315,3.27467,13.1093,5.04972-3.70699,3.27556-7.18467,9.09338-11.15482,9.4515-80.45385,7.25585-160.96432,13.88384-241.46304,20.64249-15.53177,1.30395-31.06182,2.62873-45.85649,3.88156-5.63698,38.16851-11.06976,74.95422-16.59684,112.37854,7.17679,1.3134,12.95772,2.88503,18.82812,3.36723,68.69488,5.64222,137.36944,7.50956,205.52299-5.32309,37.54621-7.06963,74.48814-16.42453,107.04102-37.99031,22.2488-14.73958,41.25793-32.2521,50.8355-57.95713,19.06744-51.17422,11.66586-76.03173-30.55153-111.53227-30.45418-25.60904-67.35239-41.85584-106.71935-50.14296-24.09636-5.07253-49.75484,.7518-73.30385-9.47898-58.65426,1.4061-117.30472,3.58846-175.96442,3.87314-27.12702,.13175-54.59723,10.30086-81.54484-1.57677-1.5142-.66746-3.68774,.09105-5.54463,.28132-40.19032,4.1165-78.90594,13.62596-114.21693,33.80448-29.53455,16.87761-56.44748,37.26791-71.70021,68.8507-24.02195,49.74065-10.05328,119.68181,31.37988,162.11912,35.45121,36.3105,79.36435,56.87783,128.13993,67.53298,98.20521,21.45321,193.26336,7.83273,286.08591-27.51631,3.12432-1.18981,5.42891-4.53196,9.64653-8.20374-4.15274-1.06723-5.50379-1.72901-6.84693-1.71318-28.02575,.32866-56.1071,2.01114-84.06016,.77454-29.44658-1.30265-58.85185-4.74565-88.11492-8.50191-15.52694-1.99299-20.08308-9.66848-18.31485-24.94096,.66527-5.74609,1.37469-11.48697,2.23053-18.61778-20.8405,6.14374-40.31467,11.36837-59.43365,17.67031-18.08259,5.96033-35.63337,13.55183-53.7704,19.31758-4.93001,1.56711-11.13327-.87101-16.75216-1.47085,.95064-5.04218,.46937-11.04615,3.09873-14.96074,11.63241-17.31822,23.82682-34.29305,36.59756-50.78856,3.16188-4.08402,8.98446-7.69447,14.03264-8.42579,13.59102-1.96901,23.77257-9.60381,32.42171-18.74042,16.1821-17.09439,33.79815-26.98677,58.13465-16.9031Zm113.5757-494.09021c1.29237-9.11236-1.57095-13.70102-11.87616-13.76744-7.31553-.04717-14.91641-1.96723-21.79356-4.60582-3.49439-1.34074-5.67151-6.11479-8.44415-9.33678,3.89044-.75241,7.87826-2.46111,11.65298-2.07678,11.04797,1.12479,22.01904,4.45129,33.00548,4.38723,15.55225-.09064,24.37367-11.017,24.30112-27.09006-31.94198-8.64113-35.30877-11.25341-28.55077-23.498,2.33398,2.64818,4.01037,6.30649,6.61111,7.16507,7.21598,2.38228,14.79391,4.37188,22.28569,4.59355,1.41713,.04193,2.60851-9.00822,4.78108-13.43244,2.56789-5.22936,5.68323-10.32018,9.35034-14.82937,2.11203-2.59704,5.78384-3.92562,10.09635-6.68411-3.28563-.74012-4.72311-1.39887-6.12261-1.32618-11.17935,.58069-16.12304-4.33495-16.60291-15.81161-.28344-6.77965-3.60679-13.43219-5.76798-20.84469-2.07253,1.62735-3.13069,2.14767-3.75019,2.99049-12.31366,16.75209-25.13955,32.70343-47.8156,35.72594-2.09035,.27864-4.44618,2.51033-5.70536,4.46287-11.1455,17.2829-25.10937,31.3838-43.58383,40.93358-2.71293,1.40237-5.72231,5.29041-5.83896,8.14108-.59086,14.44381-.272,28.92488-.272,44.90346h84.03991Zm-27.42266-109.13268c11.88065-2.13731,25.38706-10.39836,32.19791-21.13519,3.78445-5.9659,9.64646-16.70679,7.52607-19.12996-5.36235-6.12807-14.65041-8.89055-22.51086-12.7023-1.51223-.73333-3.69329-.21376-5.55292-.0855-29.50126,2.03437-51.56678,19.27445-59.98664,47.59838-3.50724,11.79826-6.20955,23.87284-8.55552,35.96194-1.0052,5.18-.1681,10.71749-.1681,18.13052,19.52419-10.3764,32.4893-23.5462,42.72892-39.84771-7.23691-8.96996-16.51007-16.97408-8.92604-28.95881,1.89155-2.98916,7.80454-5.96569,10.94404-5.19233,13.23009,3.25896,12.12507,14.96812,12.30314,25.36097Zm-366.50586,18.58956c-16.74691,15.74745-22.58809,45.22592-14.61468,62.21024,1.18325,2.52044,.68599,5.82985,.96621,8.77421-2.9606-1.51994-8.0928-2.59012-8.51638-4.63545-2.15413-10.40175-4.43575-21.10472-4.05601-31.6076,.35077-9.70168,4.01239-19.2837,6.21582-28.91841-.98968-.21489-1.97936-.42982-2.96904-.64471-3.09287,14.47782-7.13016,28.83352-9.0228,43.46659-2.04403,15.80352,5.47729,25.25434,20.69069,29.95707,8.1788,2.52815,17.50443,3.80222,24.00647,8.70224,8.94019,6.73751,18.11265,7.53823,28.22321,7.34978,10.46223-.19492,20.92882-.1658,31.3936-.21054,6.09652-.02607,12.19323-.00473,18.28985-.00473,.77699-1.21289,1.55401-2.42579,2.331-3.63868-3.87327-6.81507-7.38032-13.87275-11.69998-20.39208-7.76768-11.7232-16.24264-22.97867-23.97747-34.72239-3.62529-5.50427-6.21575-11.69015-9.27519-17.5671-1.17037,4.70636-.8772,8.99853,.57946,12.85073,3.42985,9.07026,7.20364,18.0273,11.24237,26.84509,3.1971,6.98029,1.51393,10.86463-6.25422,11.28239-10.03318,.53961-20.22617,1.98634-30.10001,.8559-25.75667-2.94885-36.2667-19.21916-29.84463-44.28053,1.9308-7.53477,3.76197-15.09506,6.39175-25.67203Zm554.59337,100.92525c4.73216,0,9.4957,.17046,14.24341-.03114,15.88026-.67421,32.8268,2.9023,44.60105-13.05716,2.23834-3.03409,8.27862-3.00274,12.11887-5.17424,6.35661-3.59442,14.42017-6.46109,18.1151-12.04799,11.72684-17.73139,15.22157-38.53722,18.24781-59.31225-7.04346,14.41469-12.60765,29.36803-18.87937,44.0185-1.15644,2.70125-5.17674,4.17658-7.87515,6.21777-.56393-3.24124-2.47532-6.9955-1.46893-9.63885,5.70388-14.98105,12.15498-29.67617,18.24302-44.51324,2.0232-4.93081,3.7246-9.99365,5.57316-14.99616-3.58682,.97484-5.66312,2.66219-6.67465,4.84332-7.6807,16.56183-15.17183,33.2118-22.68475,49.85109-7.47283,16.55036-20.60242,24.23907-38.5287,22.49965-10.99299-1.06672-12.99578-4.98223-7.05435-14.17506,4.46249-6.90455,9.14436-13.66741,13.72853-20.49334-35.7798,22.92218-42.24014,33.47181-41.70505,66.0091Zm-136.57006,225.5526c-8.54329,23.87188-16.97689,47.43722-26.04129,72.76515,17.49077-1.14685,33.54783-2.19976,48.37696-3.17211-7.50308-23.37796-14.72725-45.8869-22.33567-69.59304Z"/><g><path class="cls-1" d="M185.89289,219.65672c-.11118,23.95444-4.10634,42.34033-14.51635,58.93536-7.42458,11.83591-18.44664,18.24188-32.26576,15.30872-15.9205-3.37926-32.01726-7.31734-46.95404-13.59187-18.86347-7.92406-27.3584-22.67318-25.49079-38.14846,1.70363-14.11645,17.23709-29.3959,35.08696-31.78895,8.78114-1.17725,12.70053-5.04912,16.10004-12.2523,5.28227-11.19258,13.77524-19.3336,25.8394-23.31099,16.84687-5.55422,32.37517,1.59042,37.40329,18.51308,2.94255,9.90343,3.77228,20.43464,4.79725,26.33542Z"/><path class="cls-3" d="M145.66402,299.10205c-2.43652,0-4.93506-.26758-7.48535-.80908-15.54199-3.29883-32.08496-7.25928-47.76074-13.84424-19.89209-8.35645-30.4375-24.36621-28.20947-42.82617,2.02637-16.79346,19.8623-33.14258,38.94775-35.70117,6.58545-.88281,9.53809-3.15381,12.63623-9.71875,6.03174-12.78076,15.61865-21.41357,28.49414-25.65869,9.69531-3.19678,19.39502-2.67676,27.31201,1.46143,7.62744,3.98779,13.09131,10.9165,15.80127,20.03711,2.23926,7.53662,3.31543,15.46973,4.10156,21.26172,.29541,2.17773,.55029,4.05859,.81543,5.58398l.06787,.39209-.00146,.39746c-.12012,25.8252-4.80908,44.73096-15.20312,61.30078-7.44434,11.86719-17.74268,18.12354-29.51611,18.12354Zm9.05762-121.64697c-3.10107,0-6.34717,.53711-9.62354,1.61719-10.44434,3.44385-18.24512,10.49658-23.18457,20.96338-3.18262,6.74414-7.75586,13.20312-19.56396,14.78613-16.68945,2.23779-29.85156,16.4873-31.22559,27.87695-1.71973,14.24561,6.79346,26.7583,22.77197,33.4707,14.9873,6.2959,31.03662,10.13184,46.14697,13.33936,13.99609,2.97021,22.69434-5.59521,27.52979-13.30225,9.52979-15.19238,13.67285-32.01172,13.82812-56.18262-.26709-1.59668-.51465-3.42285-.79834-5.51221-.78809-5.80908-1.76904-13.03857-3.81104-19.91162-2.00244-6.73877-5.92822-11.7998-11.35352-14.63672-3.19238-1.66895-6.84082-2.5083-10.71631-2.5083Z"/></g><path class="cls-3" d="M454.78667,100.19703c5.27718,8.25801,12.55171,17.46786,17.20459,27.85237,2.27917,5.08673,1.97435,14.57778-1.35311,18.00286-3.22784,3.32258-12.65838,3.47197-17.8653,1.34456-7.63795-3.12069-13.94099-9.50857-21.27871-14.84303-1.66769,9.82593-3.19382,20.19669-5.27386,30.45516-.95172,4.69391-2.05164,9.87468-4.80629,13.54081-2.75969,3.67273-8.39061,8.62556-11.46803,7.85375-5.22275-1.30982-12.34843-5.94805-13.47657-10.48093-2.65569-10.67084-2.37581-22.09734-3.00164-33.23395-.2052-3.65144,.45822-7.3517,.94449-14.07108-5.00642,3.85775-8.04968,6.08019-10.95777,8.46724-7.79002,6.39421-15.14049,13.4086-23.38876,19.13499-7.64292,5.30618-16.61637,5.71077-24.05241-.35362-7.13664-5.82024-4.04415-13.32167-1.41528-20.61901,4.87984-13.54568,13.53254-23.93121,25.08638-32.18236,3.23784-2.31231,6.34517-4.80745,10.66265-8.09446-12.12264-3.84768-22.93629-6.69377-33.26669-10.76588-6.8296-2.69214-16.36825-3.78249-16.46578-14.06692-.10421-10.98895,7.03233-18.97214,20.3284-19.51085,12.80599-.51885,25.75867,2.27048,38.62609,3.78352,3.56126,.41875,7.04819,1.46911,10.54878,2.22527,2.22885-12.4714,3.3536-24.03116,6.54047-34.99131,2.72975-9.38809,6.09708-21.86608,19.12475-19.30488,11.41859,2.24485,7.94952,14.27108,8.85506,22.77409,.38145,3.58168,.45479,7.19618,.63604,10.25342,8.60156-7.99812,16.49579-16.38911,25.54755-23.25383,3.77962-2.86641,13.22858-4.86217,14.5165-3.12187,3.33626,4.50815,5.95283,11.98117,4.52826,17.0554-2.66425,9.49007-8.39068,18.12046-13.43998,28.31336,6.16183-1.11958,11.65716-2.43701,17.22994-3.04607,6.29656-.68817,12.93415-1.99663,18.91979-.7037,5.62869,1.21583,12.93172,4.334,15.08924,8.7629,1.58664,3.25715-2.52712,12.04821-6.54499,14.78619-14.89339,10.14909-30.79969,18.81179-46.33382,28.03786Zm-54.0866-33.35739c-7.57437-1.88913-14.1716-3.6615-20.82896-5.16846-13.70958-3.10334-27.20109-9.44397-41.60906-4.33037-3.47727,1.23412-6.17115,4.67545-9.22527,7.10176,2.60632,2.76895,4.72955,7.02,7.90142,8.05383,14.82108,4.83071,29.94992,8.711,44.91809,13.10353,2.20607,.64739,4.77361,1.79814,5.93337,3.54131,.57712,.86746-1.22005,4.11904-2.71245,5.38593-2.81817,2.39232-6.26357,4.02726-9.32308,6.15689-12.8977,8.97768-26.32531,17.6107-31.31022,33.76363-1.2748,4.13071-.83203,8.79146-1.1784,13.20868,4.8822-.7037,11.10795,.2559,14.40647-2.40844,12.16416-9.82548,23.31202-20.90317,34.95719-31.38201,2.48262-2.23398,5.44888-3.93052,8.19236-5.87466,1.19977,3.60854,3.43718,7.22307,3.41639,10.82454-.08204,14.18302-1.41124,28.37343-1.10831,42.53607,.10462,4.892,3.61385,9.71119,5.56792,14.56365,2.70495-4.32099,7.39637-8.48704,7.74771-12.99161,1.11787-14.33223,.54174-28.79193,.80829-43.19891,.05731-3.09985,.90297-6.18512,1.38551-9.27712,3.1719,1.02601,6.99687,1.25817,9.3919,3.2285,6.88307,5.66248,12.93545,12.33338,19.80711,18.01157,4.71969,3.90004,10.26164,6.80503,15.43605,10.15478,.7841-.87728,1.56821-1.75458,2.35231-2.63186-.49672-2.36164-.28683-5.26161-1.60774-6.99529-7.1798-9.4235-14.78048-18.52504-22.13986-27.81379-2.40143-3.03098-4.51281-6.29176-6.75683-9.44747,3.23024-2.20549,6.18423-5.16002,9.74371-6.4729,9.80257-3.61562,20.27458-5.64445,29.69549-10.00121,9.09338-4.2053,17.20596-10.53133,25.74939-15.92575-.47298-1.36089-.94597-2.72177-1.41898-4.08267-4.53936-.44364-9.45764-2.23368-13.54823-1.0826-13.13243,3.69541-25.92835,8.57265-38.92525,12.77373-3.20475,1.0359-6.67952,1.23636-10.03013,1.82089,.5207-3.35357,.14213-7.22302,1.71849-9.97104,6.68479-11.65331,14.169-22.84776,20.8653-34.49493,1.92629-3.35048,2.19219-7.65559,3.21938-11.52302-.87362-.49726-1.74723-.99452-2.62088-1.49178-2.8196,2.19436-6.20852,3.93908-8.35906,6.66189-8.75661,11.08689-17.04629,22.54175-25.73942,33.68039-1.4046,1.79974-3.98166,2.68438-6.01679,3.99204-1.10351-2.15595-2.80737-4.21883-3.15967-6.49125-.44753-2.88679,.3375-5.94281,.3526-8.92707,.05902-11.68517,.02412-23.37082,.02412-35.05628-1.4133-.0842-2.82659-.16839-4.23992-.25259-11.7711,16.66246-12.39176,35.95308-11.73208,58.72949Z"/><path class="cls-3" d="M238.23109,99.42072c-7.8357-1.96163-14.48127,3.356-19.81696,10.32286-11.02892,14.40054-13.97571,31.49397-12.84207,48.87919,1.18946,18.24118,4.60491,36.32859,6.51699,54.53892,.36067,3.43506-1.76767,7.13145-2.74753,10.70725-2.47311-2.87171-6.24019-5.3624-7.21572-8.67512-8.19351-27.82396-14.72247-56.28086-6.83379-84.96145,3.40671-12.38563,11.37368-23.93535,19.10564-34.52371,3.48919-4.77824,11.78213-9.26657,17.34827-8.68131,14.27482,1.50098,21.87105-7.581,31.86727-14.33124,8.23518-5.56105,18.84326-7.88891,28.69424-10.56602,2.27691-.61878,5.75452,3.18073,8.6796,4.94708-2.63935,2.36413-5.117,6.53426-7.94534,6.78746-14.09381,1.26177-24.50125,8.07263-33.34344,19.42521,12.26431,17.72969,16.13313,37.31089,12.13386,58.41681-.41711,2.20118-.86903,4.4152-1.55392,6.54305-4.22985,13.1414-13.045,20.54813-22.82022,19.2737-9.29956-1.21245-15.2789-9.58202-14.59041-24.44883,.81875-17.67961,3.44344-35.2756,5.36354-53.65385Zm14.26101,7.54047c-8.51116,16.36086-8.64169,31.96923-8.30303,47.47859,.08389,3.84248,3.10948,7.6207,4.78288,11.42846,3.42526-3.39652,8.63672-6.21338,9.96032-10.29194,5.1702-15.93164,2.13005-31.33525-6.44017-48.61511Z"/><path class="cls-3" d="M515.28186,136.5412c-4.40573-7.31323-8.17938-12.41259-10.61867-18.08572-1.35105-3.14219-.47004-7.24411-.59511-10.91343,3.11072,1.26268,6.894,1.80294,9.19013,3.94059,4.57776,4.26177,8.33878,9.40081,13.97987,15.97554,1.85329-8.34652,2.85311-15.0948,4.98281-21.46539,1.0202-3.05174,4.17984-5.38827,6.37056-8.04871,1.54813,3.3668,4.25846,6.68898,4.3898,10.11017,.23541,6.13345-1.08032,12.32644-1.98826,20.71675,7.94208-6.90487,14.04249-12.82338,20.84793-17.77228,2.20702-1.60489,6.26042-.67064,9.46925-.8978-.35463,3.25619,.43376,7.39361-1.27298,9.60725-5.65963,7.34059-12.21801,13.98838-19.16713,21.72023,5.78939,.93999,12.39683,1.19513,18.37717,3.26355,4.17391,1.44365,7.48887,5.37072,11.1875,8.18854-4.06278,1.61481-8.06061,4.33488-12.20403,4.57867-5.8381,.34348-11.78418-1.14767-20.32288-2.17042,6.09612,9.23502,11.60036,16.49065,15.7616,24.44852,1.5123,2.89216-.17978,7.45987-.40978,11.26308-3.43218-1.08337-7.98764-1.14263-10.08505-3.44299-6.17714-6.7748-11.37999-14.43796-18.21524-23.39228-2.09871,8.9234-3.30441,15.79681-5.45998,22.35811-.86632,2.63684-3.81798,4.58859-5.82049,6.85214-1.42984-2.98287-3.8729-5.90338-4.06127-8.96269-.3128-5.08062,.82288-10.2504,1.65292-18.35616-7.93705,6.67684-13.49483,11.99275-19.73983,16.31606-2.82046,1.95253-7.00866,1.92937-10.57632,2.8026,.86793-3.54812,.68654-7.98358,2.79782-10.4803,6.70822-7.93288,14.27102-15.14309,22.73651-23.90934-7.71034-1.78341-14.81238-3.01901-21.60977-5.20284-2.64328-.84921-4.59928-3.83775-6.86837-5.85179,2.67319-1.47037,5.2705-3.98915,8.03567-4.18941,5.4917-.39772,11.07589,.48206,19.23564,.99977Z"/><path class="cls-3" d="M633.55933,194.99866c8.45888-1.07213,15.88615-3.48756,22.89803-2.60454,16.07779,2.02474,23.53157,15.88062,16.55889,30.5691-3.10078,6.53199-8.03663,12.72097-13.50449,17.50598-19.36801,16.94934-39.14593,33.44895-59.22498,49.54989-3.58394,2.87387-9.72028,4.73356-13.94284,3.78581-2.33494-.52409-4.40391-7.83691-4.43419-12.10482-.17992-25.35889-.01158-50.72921,.60963-76.08173,.4132-16.86358,8.5548-27.16919,21.85149-29.34776,13.28826-2.1772,23.41805,4.54237,29.18846,18.72807Zm-39.37134,85.79252c16.6881-14.53161,31.40117-27.11296,45.83093-40.01134,6.64978-5.94409,13.45482-11.97165,18.78777-19.02169,2.6044-3.44289,4.14089-12.24952,2.42065-13.50543-4.21289-3.07574-11.01258-5.04879-15.99879-3.95239-5.1973,1.1428-9.43033,6.48597-14.20387,9.8225-2.20792,1.54325-4.69831,2.68235-7.06052,4.00468-1.03681-2.5406-2.48574-5.00416-2.97958-7.64622-.39306-2.10295,.41965-4.42022,.62936-6.6487,1.10841-11.77694-2.46724-16.93816-11.90161-17.22156-9.67424-.29065-17.79254,8.19937-17.09343,18.0292,.39662,5.5752,1.43995,11.12894,1.49599,16.69934,.19102,18.98109,.0731,37.9653,.0731,59.45161Z"/><path class="cls-3" d="M110.22484,195.25819c-1.76227,2.32638-2.56342,4.30194-3.4149,4.32387-1.99722,.05147-4.8702-.15864-5.88986-1.44812-5.96299-7.54083-11.59831-15.35123-17.06077-23.26627-.82968-1.20221-.83657-3.89441-.01969-5.03458,.72281-1.00883,4.10141-1.65174,4.63652-1.02638,7.37725,8.62129,14.46524,17.49009,21.7487,26.45148Z"/><path class="cls-3" d="M106.45814,187.75754c1.48033-10.28156,2.39378-18.59493,4.05796-26.7552,.39984-1.96062,3.14653-3.63682,5.14428-4.93571,.47713-.31019,2.63735,1.16315,3.4117,2.25147,3.80959,5.35417-3.00379,25.28925-12.61393,29.43944Z"/><path d="M99.96711,201.23247c-4.79058,6.24994-19.25892,10.96863-25.20145,7.49503-1.50831-.88163-2.50311-5.82663-1.4667-7.22903,2.32162-3.14141,22.56511-2.76404,26.66816-.266Z"/><path class="cls-2" d="M321.19781,888.22694c-24.3365-10.08368-41.95256-.19129-58.13465,16.9031-8.64914,9.13661-18.83069,16.77141-32.42171,18.74042-5.04818,.73131-10.87076,4.34177-14.03264,8.42579-12.77074,16.49551-24.96515,33.47034-36.59756,50.78856-2.62936,3.91459-2.14809,9.91856-3.09873,14.96074,5.61889,.59984,11.82216,3.03796,16.75216,1.47085,18.13703-5.76575,35.6878-13.35725,53.7704-19.31758,19.11898-6.30194,38.59315-11.52657,59.43365-17.67031-.85584,7.13081-1.56526,12.8717-2.23053,18.61778-1.76823,15.27248,2.78792,22.94797,18.31485,24.94096,29.26307,3.75625,58.66834,7.19926,88.11492,8.50191,27.95306,1.2366,56.03441-.44589,84.06016-.77454,1.34314-.01583,2.69419,.64595,6.84693,1.71318-4.21762,3.67177-6.52221,7.01393-9.64653,8.20374-92.82255,35.34905-187.8807,48.96953-286.08591,27.51631-48.77557-10.65515-92.68872-31.22248-128.13993-67.53298-41.43316-42.43732-55.40183-112.37848-31.37988-162.11912,15.25273-31.58279,42.16566-51.97309,71.70021-68.8507,35.31099-20.17852,74.02661-29.68799,114.21693-33.80448,1.85689-.19026,4.03043-.94877,5.54463-.28132,26.9476,11.87763,54.41781,1.70852,81.54484,1.57677,58.65971-.28467,117.31016-2.46703,175.96442-3.87314,23.54901,10.23077,49.20748,4.40644,73.30385,9.47898,39.36696,8.28712,76.26517,24.53392,106.71935,50.14296,42.21739,35.50053,49.61897,60.35804,30.55153,111.53227-9.57757,25.70502-28.5867,43.21755-50.8355,57.95713-32.55288,21.56578-69.49481,30.92068-107.04102,37.99031-68.15355,12.83264-136.82811,10.96531-205.52299,5.32309-5.87041-.4822-11.65134-2.05383-18.82812-3.36723,5.52709-37.42432,10.95986-74.21003,16.59684-112.37854,14.79467-1.25284,30.32472-2.57761,45.85649-3.88156,80.49872-6.75865,161.0092-13.38664,241.46304-20.64249,3.97015-.35812,7.44783-6.17594,11.15482-9.4515-4.37781-1.77505-8.91888-5.41633-13.1093-5.04972-84.56976,7.39726-169.11342,15.10613-253.6234,23.16057-14.78788,1.40939-29.38204,4.78416-44.1097,6.9522-2.81005,.41362-5.86787-.37607-8.74266-.95289-50.93652-10.22016-101.84086-20.60337-152.82134-30.59853-5.60403-1.09868-13.36237-5.17421-16.06835,3.46932-.43933,1.40329,8.65567,7.50435,13.96719,8.72848,49.16728,11.33144,98.48406,22.01269,147.71501,33.07152,4.56632,1.02578,12.07345,.45788,8.87822,10.37972Z"/><path class="cls-2" d="M434.77351,394.13673h-84.03991c0-15.97858-.31886-30.45965,.272-44.90346,.11664-2.85067,3.12603-6.73871,5.83896-8.14108,18.47446-9.54979,32.43833-23.65068,43.58383-40.93358,1.25918-1.95253,3.61501-4.18422,5.70536-4.46287,22.67605-3.02251,35.50194-18.97385,47.8156-35.72594,.6195-.84282,1.67766-1.36314,3.75019-2.99049,2.16119,7.41251,5.48454,14.06505,5.76798,20.84469,.47987,11.47666,5.42356,16.39229,16.60291,15.81161,1.39949-.07269,2.83697,.58606,6.12261,1.32618-4.31251,2.75849-7.98432,4.08707-10.09635,6.68411-3.66712,4.50918-6.78246,9.60001-9.35034,14.82937-2.17256,4.42422-3.36394,13.47437-4.78108,13.43244-7.49178-.22168-15.06971-2.21127-22.28569-4.59355-2.60074-.85858-4.27713-4.51689-6.61111-7.16507-6.758,12.24459-3.39121,14.85687,28.55077,23.498,.07256,16.07306-8.74886,26.99941-24.30112,27.09006-10.98645,.06406-21.95751-3.26244-33.00548-4.38723-3.77472-.38433-7.76254,1.32437-11.65298,2.07678,2.77264,3.22198,4.94976,7.99604,8.44415,9.33678,6.87714,2.63859,14.47803,4.55865,21.79356,4.60582,10.30522,.06642,13.16853,4.65508,11.87616,13.76744Zm13.04658-90.33296c-1.01119-.04309-2.02238-.08616-3.03357-.12925-1.51-4.68081-3.01997-9.36161-4.8722-15.10332-7.41189,7.66577-5.7587,14.82207,.00267,19.29775,2.83848,2.20507,11.10621,1.30761,14.03444-1.35554,5.00135-4.54858,7.08358-11.58354-.15008-19.30121-2.36615,6.56356-4.1737,11.57758-5.98126,16.59157Z"/><path class="cls-2" d="M407.35085,285.00405c-.17807-10.39284,.92695-22.102-12.30314-25.36097-3.13949-.77336-9.05248,2.20317-10.94404,5.19233-7.58403,11.98474,1.68913,19.98886,8.92604,28.95881-10.23961,16.30151-23.20473,29.47131-42.72892,39.84771,0-7.41302-.8371-12.95052,.1681-18.13052,2.34597-12.0891,5.04828-24.16368,8.55552-35.96194,8.41986-28.32393,30.48538-45.56401,59.98664-47.59838,1.85963-.12826,4.04069-.64783,5.55292,.0855,7.86045,3.81175,17.14851,6.57423,22.51086,12.7023,2.12039,2.42317-3.74162,13.16406-7.52607,19.12996-6.81086,10.73683-20.31726,18.99788-32.19791,21.13519Z"/><path class="cls-2" d="M40.84499,303.5936c-2.62977,10.57697-4.46095,18.13726-6.39175,25.67203-6.42207,25.06137,4.08796,41.33168,29.84463,44.28053,9.87384,1.13044,20.06683-.31629,30.10001-.8559,7.76814-.41776,9.45132-4.3021,6.25422-11.28239-4.03873-8.81779-7.81252-17.77483-11.24237-26.84509-1.45667-3.8522-1.74983-8.14437-.57946-12.85073,3.05944,5.87695,5.6499,12.06283,9.27519,17.5671,7.73483,11.74372,16.20979,22.99919,23.97747,34.72239,4.31966,6.51933,7.82671,13.57701,11.69998,20.39208-.77699,1.21289-1.55401,2.42579-2.331,3.63868-6.09662,0-12.19333-.02134-18.28985,.00473-10.46478,.04474-20.93137,.01562-31.3936,.21054-10.11055,.18845-19.28302-.61227-28.22321-7.34978-6.50204-4.90002-15.82767-6.17409-24.00647-8.70224-15.2134-4.70273-22.73472-14.15355-20.69069-29.95707,1.89264-14.63307,5.92993-28.98877,9.0228-43.46659,.98968,.21489,1.97936,.42982,2.96904,.64471-2.20343,9.63471-5.86505,19.21673-6.21582,28.91841-.37974,10.50288,1.90188,21.20585,4.05601,31.6076,.42357,2.04533,5.55578,3.11551,8.51638,4.63545-.28022-2.94437,.21705-6.25377-.96621-8.77421-7.97341-16.98432-2.13224-46.46279,14.61468-62.21024Z"/><path class="cls-2" d="M595.43836,404.51885c-.53509-32.53729,5.92525-43.08693,41.70505-66.0091-4.58417,6.82593-9.26604,13.58879-13.72853,20.49334-5.94142,9.19283-3.93863,13.10834,7.05435,14.17506,17.92628,1.73942,31.05586-5.9493,38.5287-22.49965,7.51291-16.63929,15.00404-33.28926,22.68475-49.85109,1.01153-2.18113,3.08783-3.86848,6.67465-4.84332-1.84856,5.00251-3.54996,10.06535-5.57316,14.99616-6.08804,14.83707-12.53913,29.53219-18.24302,44.51324-1.00639,2.64335,.90499,6.39762,1.46893,9.63885,2.6984-2.04119,6.71871-3.51652,7.87515-6.21777,6.27172-14.65048,11.83591-29.60382,18.87937-44.0185-3.02624,20.77503-6.52098,41.58086-18.24781,59.31225-3.69493,5.5869-11.75849,8.45357-18.1151,12.04799-3.84025,2.1715-9.88054,2.14016-12.11887,5.17424-11.77425,15.95946-28.72079,12.38295-44.60105,13.05716-4.74771,.2016-9.51125,.03114-14.24341,.03114Z"/><path class="cls-2" d="M458.8683,630.07145c7.60842,23.70614,14.83259,46.21508,22.33567,69.59304-14.82913,.97234-30.88619,2.02526-48.37696,3.17211,9.0644-25.32792,17.498-48.89327,26.04129-72.76515Z"/><path class="cls-1" d="M400.70007,66.83964c-.65968-22.77641-.03902-42.06702,11.73208-58.72949,1.41333,.08419,2.82663,.16839,4.23992,.25259,0,11.68547,.03491,23.37111-.02412,35.05628-.01511,2.98426-.80013,6.04028-.3526,8.92707,.3523,2.27242,2.05616,4.3353,3.15967,6.49124,2.03512-1.30765,4.61219-2.19229,6.01679-3.99203,8.69313-11.13865,16.98281-22.5935,25.73942-33.68039,2.15054-2.72281,5.53945-4.46752,8.35906-6.66189,.87365,.49726,1.74727,.99452,2.62088,1.49178-1.02719,3.86743-1.29309,8.17254-3.21938,11.52302-6.6963,11.64718-14.18051,22.84162-20.8653,34.49493-1.57636,2.74802-1.19779,6.61747-1.71849,9.97104,3.35062-.58453,6.82538-.78499,10.03013-1.82089,12.99691-4.20108,25.79283-9.07832,38.92525-12.77373,4.0906-1.15109,9.00887,.63896,13.54823,1.0826,.47302,1.36089,.946,2.72177,1.41898,4.08267-8.54343,5.39442-16.65601,11.72045-25.74939,15.92575-9.42091,4.35676-19.89293,6.38559-29.69549,10.00121-3.55948,1.31289-6.51347,4.26741-9.74371,6.4729,2.24402,3.15571,4.3554,6.41648,6.75683,9.44747,7.35938,9.28875,14.96006,18.39029,22.13986,27.81379,1.32091,1.73368,1.11101,4.63365,1.60774,6.99529-.7841,.87728-1.56821,1.75458-2.35231,2.63186-5.17441-3.34974-10.71637-6.25473-15.43605-10.15478-6.87166-5.67819-12.92404-12.34909-19.80711-18.01157-2.39503-1.97033-6.22-2.20249-9.3919-3.2285-.48254,3.092-1.3282,6.17727-1.38551,9.27712-.26655,14.40698,.30958,28.86668-.80829,43.19891-.35134,4.50457-5.04276,8.67062-7.74771,12.99161-1.95407-4.85247-5.4633-9.67165-5.56792-14.56365-.30293-14.16264,1.02626-28.35305,1.10831-42.53607,.02079-3.60147-2.21662-7.216-3.41639-10.82454-2.74349,1.94414-5.70974,3.64068-8.19236,5.87466-11.64517,10.47884-22.79303,21.55652-34.95719,31.38201-3.29851,2.66433-9.52427,1.70474-14.40647,2.40844,.34637-4.41722-.0964-9.07797,1.1784-13.20868,4.9849-16.15293,18.41252-24.78595,31.31022-33.76363,3.0595-2.12962,6.50491-3.76457,9.32308-6.15689,1.4924-1.26689,3.28957-4.51847,2.71245-5.38593-1.15976-1.74316-3.7273-2.89392-5.93337-3.54131-14.96818-4.39253-30.09702-8.27282-44.91809-13.10353-3.17187-1.03383-5.2951-5.28488-7.90142-8.05383,3.05413-2.42632,5.74801-5.86764,9.22527-7.10176,14.40798-5.11361,27.89948,1.22702,41.60906,4.33037,6.65735,1.50696,13.25459,3.27933,20.82896,5.16846Zm22.84349,14.49157c-4.745-3.2543-7.77022-6.93012-10.09786-6.53161-3.10602,.53178-5.67018,4.22866-8.46707,6.56613,2.55158,2.60083,4.98117,7.10644,7.68824,7.27987,2.84626,.18234,5.9581-3.78126,10.87669-7.3144Z"/><path class="cls-1" d="M594.18798,280.79119c0-21.48631,.11791-40.47052-.0731-59.45161-.05604-5.5704-1.09937-11.12414-1.49599-16.69934-.69911-9.82983,7.41919-18.31985,17.09343-18.0292,9.43438,.28341,13.01003,5.44463,11.90161,17.22156-.20972,2.22849-1.02243,4.54575-.62936,6.6487,.49385,2.64207,1.94277,5.10562,2.97958,7.64622,2.36221-1.32233,4.8526-2.46143,7.06052-4.00468,4.77354-3.33654,9.00658-8.6797,14.20387-9.8225,4.98621-1.0964,11.7859,.87665,15.99879,3.95239,1.72024,1.2559,.18375,10.06254-2.42065,13.50543-5.33295,7.05004-12.13799,13.0776-18.78777,19.02169-14.42976,12.89838-29.14283,25.47973-45.83093,40.01134Z"/><path d="M447.82009,303.80377c1.80756-5.01399,3.61511-10.02801,5.98126-16.59157,7.23365,7.71767,5.15143,14.75263,.15008,19.30121-2.92823,2.66315-11.19596,3.56061-14.03444,1.35554-5.76137-4.47568-7.41456-11.63198-.00267-19.29775,1.85223,5.7417,3.3622,10.42251,4.8722,15.10332,1.01119,.04309,2.02238,.08616,3.03357,.12925Z"/><path class="cls-3" d="M423.54357,81.33121c-4.91858,3.53314-8.03043,7.49674-10.87669,7.3144-2.70707-.17343-5.13666-4.67904-7.68824-7.27988,2.79689-2.33747,5.36104-6.03434,8.46707-6.56613,2.32764-.39851,5.35286,3.27732,10.09786,6.53161Z"/></svg>